<?xml version="1.0" encoding="utf-8"?>
<!-- Generator: Adobe Illustrator 23.0.2, SVG Export Plug-In . SVG Version: 6.00 Build 0)  -->
<svg version="1.1" id="Camada_1" xmlns="http://www.w3.org/2000/svg" xmlns:xlink="http://www.w3.org/1999/xlink" x="0px" y="0px"
	 viewBox="0 0 196 196" style="enable-background:new 0 0 196 196;" xml:space="preserve">
<style type="text/css">
	.st0{fill:#002561;}
	.st1{fill:#006F35;}
	.st2{fill:#006F34;}
</style>
<g>
	<path class="st0" d="M45.7,69.7c0,12.9,0,25,0,37.5c0,9.1,0,18.6,0,27.7c0,1.1,0.4,1.9,1.5,2.7c16.3,8.7,32.6,17.4,48.9,26.2
		c1.1,0.8,1.9,0.4,3,0c16.3-8.7,33-17.4,49.3-26.2c1.1-0.8,1.5-1.5,1.5-2.7c0-20.9,0-42.1,0-63c0-0.8,0-1.5,0-2.3
		c2.7,1.5,4.9,2.7,7.6,3.8c0.8,0.4,0.8,1.1,0.8,1.9c0,12.9,0,26.2,0,39.1c0,8.3,0,16.7,0,25c0,1.1-0.4,1.9-1.5,2.7
		c-19.3,10.2-38.3,20.5-57.3,30.7c-1.1,0.8-1.9,0.8-3,0c-19-10.2-37.9-20.5-56.9-30.7c-1.5-0.4-1.9-1.1-1.9-2.3
		c0-21.2,0-42.9,0-64.1c0-1.1,0.4-1.9,1.5-2.3C41.1,72,43.4,70.9,45.7,69.7z"/>
	<path class="st0" d="M133.3,135.7c0-1.1,0-1.9,0-2.3c0-22,0-44,0-66c0-1.9-0.4-2.3-2.3-2.3c-22,0-44.4,0-66.4,0
		c-1.9,0-2.3,0.4-2.3,2.3c0,22,0,44,0,66c0,0.8,0,1.5,0,2.3c-2.7-1.5-4.9-2.7-7.6-4.2c-0.8-0.4-0.8-1.5-0.8-1.9c0-12.1,0-23.9,0-36
		c0-11.8,0-23.1,0-34.9c0-1.5,0.4-1.9,1.9-1.9c27.7,0,55.4,0,83.1,0c1.5,0,1.9,0.4,1.9,1.9c0,23.9,0,47.4,0,71.3
		c0,1.1-0.4,1.9-1.5,2.3C137.8,133.4,135.5,134.6,133.3,135.7z"/>
	<path class="st1" d="M74.9,25.4c-1.1-3.4-2.3-6.8-3-9.9c-0.4-1.1-0.4-1.9,0.8-1.9c1.5-0.8,3-1.1,4.6-1.9c1.1-0.4,1.5-0.4,1.9,0.8
		c1.1,3.8,2.3,7.2,3.4,11c0.4,1.1,0.8,1.5,2.3,1.5c2.7,0,4.9,0,7.6,0c1.1,0,1.5-0.4,1.5-1.5c0-6.4,0-12.5,0-19
		c0-1.5,0.4-1.9,1.9-1.9c1.9,0.4,4.6-0.8,5.7,0.4c1.1,1.1,0.4,3.8,0.4,5.7c0,4.9,0,9.9,0,14.8c0,1.1,0.4,1.5,1.5,1.5
		c2.7,0,4.9,0,7.6,0c1.1,0,1.5-0.4,1.5-1.5c0.8-3,1.9-6.8,2.7-10.6c0.4-1.1,0.8-1.5,1.5-1.1c1.5,0.4,3,0.8,4.9,1.1
		c1.1,0.4,1.1,0.8,1.1,1.9c-0.8,3.4-1.5,6.4-2.3,9.5c-0.4,0.8,0,1.1,0.8,1.1c2.7,0,5.7,0,8.3,0c0.8,0,1.5-0.4,1.9-1.1
		c2.7-3.8,4.9-7.6,7.6-11.8c0.8-1.5,1.9-1.9,3.8-1.9c2.3,0,4.2,0,6.4,0c0.4,0.8-0.4,1.1-0.8,1.5c-4.2,6.4-8.3,13.3-12.9,19.7
		c-0.8,1.1-1.1,1.1-2.3,1.1c-23.5,0-47.4,0-70.9,0c-1.1,0-1.9-0.4-2.7-1.5c-4.2-6.4-8.3-12.9-12.9-19.7C46.4,11.3,46,11,46,10.2
		c2.7,0,5.3,0,8.3,0c0.8,0,1.1,0.4,1.5,1.1c2.7,4.2,5.3,8,8,12.1c0.4,0.8,1.1,1.5,2.3,1.1C69.2,25.4,71.8,25.4,74.9,25.4z"/>
	<path class="st2" d="M54.4,160c1.5,0.8,2.7,1.5,3.8,1.9c12.5,6.8,25,13.7,37.5,20.5c1.1,0.8,2.3,0.8,3.4,0
		c13.3-7.2,26.9-14.4,40.2-21.2c1.9-1.1,1.9-1.1,1.9,1.1c0,1.9,0,3.4,0,5.3c0,1.1-0.4,1.9-1.5,2.3c-13.7,7.2-27.3,14.4-41,22
		c-1.1,0.4-1.5,0.4-2.7,0c-13.3-7.2-26.9-14.4-40.6-21.6c-1.1-0.4-1.5-1.1-1.5-2.3C54.4,165.3,54.4,162.6,54.4,160z"/>
	<path class="st1" d="M106,131.2c6.8-3.4,11-8.3,12.5-15.5c0.4-1.9,0.4-3.8,0.4-5.7c0-1.1-0.4-1.9-1.5-1.9c-5.3,0-10.6,0-15.5,0
		c-1.1,0-1.5-0.4-1.5-1.5c0-8.7,0-17.1,0-25.8c0-1.1,0.4-1.5,1.5-1.5c7.2,0,14.4,0,22,0c1.1,0,1.5,0.4,1.5,1.5c0,4.9,0,9.5,0,14.4
		c0,1.1-0.4,1.5-1.5,1.5c-4.6,0-4.6,0-4.6-4.6c0-1.9,0-3.8,0-5.7c0-0.8,0-1.5-1.1-1.5c-3.4,0-7.2,0-10.6,0c-0.8,0-1.1,0-1.1,1.1
		c0,4.9,0,9.9,0,14.8c0,1.5,0.8,1.1,1.5,1.1c5.3,0,10.6,0,15.5,0c1.1,0,1.5,0.4,1.5,1.5c-0.4,5.3,0.4,10.6-1.1,15.9
		c-3.8,10.6-11,16.7-22,18.6c-0.8,0-1.5,0-1.5-1.1c0-7.2,0-14.8,0-22c0-1.1,0.4-1.1,1.1-1.1c4.6,0,4.6,0,4.6,4.2
		C106,122.8,106,127,106,131.2z"/>
	<path class="st1" d="M70.7,97.8c0-5.3,0-11,0-16.3c0-1.5,0.4-1.9,1.9-1.9c7.2,0,14.4,0,21.6,0c1.1,0,1.5,0.4,1.5,1.5
		c0,4.6,0,9.5,0,14c0,1.1-0.4,1.5-1.5,1.5c-4.2,0-4.2,0-4.2-4.2c0-1.9,0-3.8,0-5.7c0-1.1,0-1.5-1.5-1.5c-3.4,0-6.8,0-10.2,0
		c-0.8,0-1.5,0-1.5,1.1c0,8.7-0.4,17.4,0,26.2c0.4,8,4.6,14,11.4,17.8c1.1,0.8,1.5,0.4,1.5-1.1c0-4.6,0-9.1,0-13.7
		c0-1.1,0.4-1.9,1.5-1.9c4.2,0,4.2,0,4.2,4.2c0,6.1,0,12.1,0,18.6c0,1.5,0,1.9-1.9,1.5c-13.7-2.3-22.8-13.3-22.8-26.9
		C70.7,106.9,70.7,102.4,70.7,97.8L70.7,97.8z"/>
	<path class="st1" d="M97.6,49.3c-11.8,0-23.1,0-34.9,0c-1.5,0-1.9-0.4-1.9-1.9c0-1.5,0-3,0-4.9c0-1.1,0.4-1.5,1.5-1.5
		c4.2,0,8.7,0,12.9,0c19,0,37.9,0,56.9,0c1.5,0,2.3,0.4,1.9,1.9c0,1.5,0,2.7,0,4.2c0.4,1.5-0.4,1.9-1.9,1.9
		C120.8,49.3,109.4,49.3,97.6,49.3z"/>
</g>
</svg>
