<?xml version="1.0" encoding="utf-8"?>
<!-- Generator: Adobe Illustrator 23.0.2, SVG Export Plug-In . SVG Version: 6.00 Build 0)  -->
<svg version="1.1" id="Camada_1" xmlns="http://www.w3.org/2000/svg" xmlns:xlink="http://www.w3.org/1999/xlink" x="0px" y="0px"
	 viewBox="0 0 72 72" style="enable-background:new 0 0 72 72;" xml:space="preserve">
<style type="text/css">
	.st0{fill:#02A247;}
</style>
<g>
	<path class="st0" d="M27.4,70.3c0-3.3,0-6.7,0-10c0-2.4,1.6-3.8,4.3-3.4c0.3,0,0.6,0.3,0.9,0.4c2.5,1.1,5,0.9,7.5-0.1
		c2.5-1.1,4.9,0.5,4.9,3c0,3.4,0,6.8,0,10.2C39.1,70.3,33.2,70.3,27.4,70.3z"/>
	<path class="st0" d="M2,70.3c0-3.4,0.1-6.8,0-10.1c-0.1-2.3,2.2-4.2,4.9-3c2.6,1.1,5.1,1.1,7.7,0c2.4-1.1,4.9,0.4,4.9,3
		c0,3.1,0,6.3,0,9.4c0,0.3,0,0.5,0.1,0.8C13.7,70.3,7.9,70.3,2,70.3z"/>
	<path class="st0" d="M52.7,70.3c0-0.3,0.1-0.5,0.1-0.8c0-3,0.1-6.1,0-9.1c-0.1-2.5,1.5-3.9,4.3-3.6c0.2,0,0.4,0.2,0.6,0.3
		c2.6,1.2,5.2,1.2,7.8,0c1.8-0.8,4.1-0.1,4.7,1.8c0,0.1,0.1,0.2,0.2,0.3c0,3.7,0,7.4,0,11.1C64.5,70.3,58.6,70.3,52.7,70.3z"/>
	<path class="st0" d="M45,27.1c-5.9,0-11.7,0-17.6,0c0-0.2,0-0.5,0-0.7c0-3.1,0.1-6.2,0-9.3c-0.1-2.4,2.1-4.3,5-3.1
		c2.6,1.1,5.1,1.1,7.7,0c2.7-1.1,4.9,0.5,4.9,3c0,3.2,0,6.4,0,9.6C45,26.7,45,26.9,45,27.1z"/>
	<path class="st0" d="M11.9,37.4c0,0.8,0,1.6,0,2.4c0,0.8-0.4,1.3-1.1,1.3c-0.7,0-1.1-0.5-1.1-1.3c0-1.1,0-2.2,0-3.3
		c0-1,0.4-1.4,1.4-1.4c2.2,0,4.5,0,6.7,0c5.4,0,10.9,0,16.3,0c0.3,0,0.6,0,1,0c0-0.8,0-1.6,0-2.4c0-0.7,0.4-1.2,1-1.3
		c0.8-0.1,1.3,0.4,1.3,1.2c0,0.8,0,1.6,0,2.5c0.4,0,0.6,0,0.9,0c7.6,0,15.1,0,22.7,0c1.5,0,1.8,0.3,1.8,1.8c0,1,0,1.9,0,2.9
		c0,0.8-0.5,1.3-1.2,1.3c-0.7,0-1.1-0.5-1.1-1.3c0-0.7,0-1.4,0-2.1c0,0,0-0.1-0.1-0.2c-7.6,0-15.3,0-23.1,0c0,0.8,0,1.6,0,2.4
		c0,0.7-0.4,1.2-1,1.3c-0.7,0.1-1.3-0.4-1.3-1.2c0-0.8,0-1.6,0-2.3c0,0,0,0-0.1-0.1C27.3,37.4,19.6,37.4,11.9,37.4z"/>
	<path class="st0" d="M36.2,11.8c-2.7,0-4.9-2.2-4.9-4.9c0-2.7,2.2-4.9,4.9-4.9c2.7,0,4.9,2.2,4.9,4.9C41,9.6,38.9,11.8,36.2,11.8z"
		/>
	<path class="st0" d="M10.8,45.2c2.7,0,4.9,2.1,4.9,4.8c0,2.7-2.1,4.9-4.8,4.9c-2.7,0-4.9-2.2-4.9-4.9C5.9,47.4,8.1,45.2,10.8,45.2z
		"/>
	<path class="st0" d="M56.7,50.1c0-2.7,2.1-4.9,4.8-4.9c2.7,0,4.9,2.2,4.9,4.8c0,2.7-2.2,4.9-4.9,4.9C58.9,55,56.7,52.8,56.7,50.1z"
		/>
	<path class="st0" d="M41,50.2c-0.1,2.7-2.3,4.9-5,4.8c-2.7-0.1-4.9-2.3-4.8-5c0.1-2.7,2.3-4.8,5-4.8C39,45.3,41.1,47.5,41,50.2z"/>
</g>
</svg>
