<?xml version="1.0" encoding="utf-8"?>
<!-- Generator: Adobe Illustrator 23.0.2, SVG Export Plug-In . SVG Version: 6.00 Build 0)  -->
<svg version="1.1" id="Camada_1" xmlns="http://www.w3.org/2000/svg" xmlns:xlink="http://www.w3.org/1999/xlink" x="0px" y="0px"
	 viewBox="0 0 72 72" style="enable-background:new 0 0 72 72;" xml:space="preserve">
<style type="text/css">
	.st0{fill:#02A247;}
</style>
<g>
	<path class="st0" d="M70.5,59.3c-0.5,1.1-1.4,1.6-2.7,1.5c-1.2-0.1-2.3,0-3.5,0c-1.3,0-2.2-0.8-2.2-2.1c0-9.8,0-19.6,0-29.4
		c0-1.3,0.8-2.1,2.2-2.1c1.2,0,2.3,0.1,3.5,0c1.3-0.1,2.2,0.3,2.7,1.5C70.5,38.8,70.5,49.1,70.5,59.3z"/>
	<path class="st0" d="M1.5,43.8c2.2-4.7,5-9.2,7.5-13.8c1.3-2.4,3-4.5,5.3-6.1c1.6-1.2,3.2-2.4,4.8-3.6c1.3-1,2.8-1.4,4.5-1
		c0,0.3-0.2,0.4-0.3,0.6c-5.3,9.2-10.6,18.5-16,27.7c-1,1.8-2.6,2-4.2,0.7c-0.9-0.7-1.3-1.7-1.7-2.8C1.5,45,1.5,44.4,1.5,43.8z"/>
	<path class="st0" d="M29.4,41.9c1.2-2.1,2.4-4.2,3.6-6.3c2.2-3.9,4.5-7.8,6.7-11.6c0.2-0.4,0.4-0.5,0.9-0.3
		c4.2,2.2,8.5,4.4,12.7,6.7c1.1,0.6,2.1,0.9,3.4,0.8c1.4-0.1,1.4,0,1.4,1.3c0,8.1,0,16.2,0,24.2c0,0.5-0.2,0.7-0.6,0.9
		c-7.7,2.7-15.3,2.4-22.6-1.3c-1.3-0.7-2.6-1-4.1-1c-5,0.1-9.9,0-14.9,0c-2.4,0-4.4-1.8-4.7-4c-0.3-2.4,1.1-4.5,3.3-5.2
		c0.6-0.2,1.1-0.2,1.7-0.2c5.4,0,10.7,0,16.1,0c1.2,0,2-0.8,2.1-1.8c0.1-1-0.6-1.9-1.6-2.2c-0.2,0-0.4,0-0.7,0c-0.9,0-1.8,0-2.6,0
		C29.5,41.9,29.5,41.9,29.4,41.9z"/>
	<path class="st0" d="M15.3,41.9c1.1-1.9,2.1-3.7,3.2-5.5c4.2-7.3,8.5-14.7,12.7-22c0.3-0.5,0.4-0.6,0.9-0.3c2,1.2,4,2.3,6,3.5
		c0.3,0.2,0.4,0.3,0.2,0.7c-4.5,7.7-8.9,15.5-13.4,23.2c-0.2,0.3-0.3,0.5-0.7,0.5C21.3,41.9,18.4,41.9,15.3,41.9z"/>
	<path class="st0" d="M24.6,61.3c-0.6,3.8-4.8,5.4-7.6,3.1c-0.3-0.3-0.5-0.5-0.2-0.9c0.8-1.2,1.5-2.5,2.2-3.7
		c0.2-0.3,0.4-0.4,0.7-0.4c3.9,0,7.9,0,11.8,0c0.9,0,1.6,0.7,2.4,1c0.2,0.1,0.1,0.3,0.1,0.5c-0.1,2.3-1.9,4.2-4.1,4.5
		c-2.3,0.3-4.5-1.2-5.1-3.4C24.8,61.8,24.7,61.7,24.6,61.3z"/>
	<path class="st0" d="M8,54.6c1.7,2.8,3.6,4.2,6.6,4.8c-0.9,1.4-1.5,2.9-2.7,4c-1.8,1.6-3.5,3.3-5.3,4.9c-0.5,0.4-1,0.7-1.6,0.5
		c-0.9-0.2-1.4-1-1.2-2c0.6-2.7,1.3-5.4,1.9-8c0.1-0.3,0.2-0.6,0.4-0.9C6.8,56.8,7.4,55.7,8,54.6z"/>
	<path class="st0" d="M44.3,7.2c0,0.5-0.2,1-0.4,1.4c-1,1.8-2.1,3.6-3.1,5.4c-0.2,0.4-0.4,0.4-0.7,0.2c-2-1.2-4.1-2.4-6.1-3.5
		c-0.3-0.2-0.4-0.3-0.2-0.7c1.1-1.8,2.1-3.6,3.1-5.3c0.8-1.4,2.3-1.8,3.7-1C41.4,4,42.2,4.4,43,4.9C43.9,5.4,44.3,6.2,44.3,7.2z"/>
</g>
</svg>
