<?xml version="1.0" encoding="utf-8"?>
<!-- Generator: Adobe Illustrator 23.0.2, SVG Export Plug-In . SVG Version: 6.00 Build 0)  -->
<svg version="1.1" id="Camada_1" xmlns="http://www.w3.org/2000/svg" xmlns:xlink="http://www.w3.org/1999/xlink" x="0px" y="0px"
	 viewBox="0 0 72 72" style="enable-background:new 0 0 72 72;" xml:space="preserve">
<style type="text/css">
	.st0{fill:#02A247;}
	.st1{fill:#011B40;}
</style>
<path class="st0" d="M10.6,2.7c14.2,0,28.5,0,42.7,0c1.1,0.1,1.5,0.9,1.7,1.9c0.1,0.4,0.1,0.7,0.1,1.1c0,17.5,0,34.9,0,52.4
	c0,0.4,0,0.9-0.1,1.3c-0.2,1.2-0.9,1.8-2.1,1.9c-0.3,0-0.7,0-1,0c-13.3,0-26.6,0-39.9,0c-0.4,0-0.8,0-1.2-0.1c-1.1-0.2-1.9-1-2-2.1
	c0-0.2,0-0.4,0-0.7c0-17.7,0-35.4,0-53.1c0-0.2,0-0.3,0-0.5C8.8,3.7,9.3,3,10.6,2.7z"/>
<g>
	<path class="st1" d="M39.3,40.1c-1.7,0-3.4,0-5.1,0c-1.3,0-2.1-0.8-2.1-1.9c0-1.2,0.8-2,2.1-2c3.4,0,6.8,0,10.2,0
		c1.2,0,2.1,0.8,2.1,1.9c0,1.2-0.9,2-2.1,2C42.6,40.1,41,40.1,39.3,40.1z"/>
	<path class="st1" d="M39.2,24.7c1.7,0,3.3,0,5,0c1.3,0,2.2,0.8,2.2,2c0,1.1-0.9,1.9-2.2,1.9c-3.3,0-6.7,0-10,0
		c-1.6,0-2.5-1.3-2-2.6c0.3-0.8,0.9-1.3,1.9-1.3C35.8,24.7,37.5,24.7,39.2,24.7z"/>
	<path class="st1" d="M39.2,17.1c-1.7,0-3.5,0-5.2,0c-1.4,0-2.3-1.4-1.8-2.7c0.3-0.8,1-1.2,1.9-1.2c3.5,0,6.9,0,10.4,0
		c1.2,0,2,0.9,2,2c0,1.1-0.8,1.9-2,1.9C42.7,17.1,40.9,17.1,39.2,17.1C39.2,17.1,39.2,17.1,39.2,17.1z"/>
	<path class="st1" d="M39.2,51.7c-1.7,0-3.4,0-5.1,0c-1.5,0-2.4-1.3-1.9-2.6c0.3-0.8,0.9-1.3,1.8-1.3c3.5,0,7,0,10.5,0
		c1.1,0,1.9,0.9,1.9,1.9c0,1.1-0.8,1.9-1.9,2C42.7,51.7,41,51.7,39.2,51.7C39.2,51.7,39.2,51.7,39.2,51.7z"/>
	<path class="st1" d="M21.5,18.1c-0.6,0-1.1-0.2-1.4-0.5c-0.7-0.7-1.4-1.4-2.1-2.1c-0.8-0.9-0.8-2,0-2.8c0.8-0.8,1.9-0.8,2.8,0
		c0.7,0.6,0.7,0.6,1.4,0c0.7-0.7,1.3-1.4,2-2c0.9-0.9,2-0.9,2.8-0.1c0.8,0.8,0.8,1.9-0.1,2.8c-1.3,1.4-2.7,2.7-4.1,4.1
		C22.5,18,22,18.2,21.5,18.1z"/>
	<path class="st1" d="M21.5,52.7c-0.6,0-1.1-0.2-1.4-0.5c-0.7-0.7-1.4-1.4-2.1-2.1c-0.8-0.9-0.8-2,0-2.8c0.8-0.8,1.9-0.8,2.8,0
		c0.7,0.6,0.7,0.6,1.4,0c0.7-0.7,1.3-1.3,2-2c0.9-0.9,2-1,2.9-0.1c0.8,0.8,0.8,1.9-0.1,2.9c-1.3,1.3-2.6,2.6-4,4
		C22.5,52.5,22,52.7,21.5,52.7z"/>
	<path class="st1" d="M19.4,23.7c0.7,0,1.2,0.4,1.7,0.9c0.3,0.3,0.5,0.3,0.8,0c0.7-0.8,1.5-1.5,2.3-2.3c0.9-0.9,2.1-0.9,2.9-0.1
		c0.8,0.8,0.8,2-0.1,2.9c-1.3,1.3-2.6,2.7-4,4c-0.9,0.9-2,0.9-2.9,0c-0.7-0.7-1.4-1.3-2-2c-0.6-0.6-0.7-1.4-0.4-2.2
		C18,24.1,18.6,23.7,19.4,23.7z"/>
	<path class="st1" d="M21.3,41.2c-0.4,0-0.9-0.2-1.2-0.5c-0.7-0.7-1.4-1.4-2.1-2.1c-0.8-0.9-0.8-2,0-2.8c0.8-0.8,1.9-0.8,2.8,0
		c0.7,0.6,0.7,0.6,1.4,0c0.7-0.7,1.3-1.4,2-2c0.9-0.9,2-0.9,2.8-0.1c0.8,0.8,0.8,1.9-0.1,2.8c-1.3,1.4-2.7,2.7-4,4.1
		C22.5,41,22,41.2,21.3,41.2z"/>
</g>
<path class="st0" d="M63.2,40.3c0,8.9,0,17.8,0,26.7c0,1.7-0.7,2.5-2.4,2.5c-13.7,0-27.3,0-41,0c-1.7,0-2.4-0.7-2.4-2.4
	c0-0.6,0-1.1,0-1.7c0-0.3,0.1-0.4,0.4-0.4c0.2,0,0.3,0,0.5,0c11.4,0,22.8,0,34.3,0c3.1,0,5.4-1.8,6-4.6c0.1-0.6,0.2-1.2,0.2-1.9
	c0-15.5,0-31.1,0-46.6c0-0.6,0.1-0.9,0.8-0.8c0.5,0.1,1,0,1.5,0c1.4,0,2.2,0.8,2.2,2.2c0,5,0,10,0,15C63.2,32.3,63.2,36.3,63.2,40.3
	z"/>
</svg>
