<?xml version="1.0" encoding="utf-8"?>
<!-- Generator: Adobe Illustrator 23.0.2, SVG Export Plug-In . SVG Version: 6.00 Build 0)  -->
<svg version="1.1" id="Camada_1" xmlns="http://www.w3.org/2000/svg" xmlns:xlink="http://www.w3.org/1999/xlink" x="0px" y="0px"
	 viewBox="0 0 72 72" style="enable-background:new 0 0 72 72;" xml:space="preserve">
<style type="text/css">
	.st0{fill:#002561;}
	.st1{fill:#006F35;}
	.st2{fill:#006F34;}
	.st3{fill:#012661;}
	.st4{fill:#012662;}
	.st5{fill:#FCFCFD;}
	.st6{fill:#FEFEFE;}
</style>
<g>
	<path class="st0" d="M22.1,22c0,3.4,0,6.6,0,9.9c0,2.4,0,4.9,0,7.3c0,0.3,0.1,0.5,0.4,0.7c4.3,2.3,8.6,4.6,12.9,6.9
		c0.3,0.2,0.5,0.1,0.8,0c4.3-2.3,8.7-4.6,13-6.9c0.3-0.2,0.4-0.4,0.4-0.7c0-5.5,0-11.1,0-16.6c0-0.2,0-0.4,0-0.6
		c0.7,0.4,1.3,0.7,2,1c0.2,0.1,0.2,0.3,0.2,0.5c0,3.4,0,6.9,0,10.3c0,2.2,0,4.4,0,6.6c0,0.3-0.1,0.5-0.4,0.7
		c-5.1,2.7-10.1,5.4-15.1,8.1c-0.3,0.2-0.5,0.2-0.8,0c-5-2.7-10-5.4-15-8.1C20.1,41,20,40.8,20,40.5c0-5.6,0-11.3,0-16.9
		c0-0.3,0.1-0.5,0.4-0.6C20.9,22.6,21.5,22.3,22.1,22z"/>
	<path class="st0" d="M45.2,39.4c0-0.3,0-0.5,0-0.6c0-5.8,0-11.6,0-17.4c0-0.5-0.1-0.6-0.6-0.6c-5.8,0-11.7,0-17.5,0
		c-0.5,0-0.6,0.1-0.6,0.6c0,5.8,0,11.6,0,17.4c0,0.2,0,0.4,0,0.6c-0.7-0.4-1.3-0.7-2-1.1c-0.2-0.1-0.2-0.4-0.2-0.5
		c0-3.2,0-6.3,0-9.5c0-3.1,0-6.1,0-9.2c0-0.4,0.1-0.5,0.5-0.5c7.3,0,14.6,0,21.9,0c0.4,0,0.5,0.1,0.5,0.5c0,6.3,0,12.5,0,18.8
		c0,0.3-0.1,0.5-0.4,0.6C46.4,38.8,45.8,39.1,45.2,39.4z"/>
	<path class="st1" d="M29.8,10.3c-0.3-0.9-0.6-1.8-0.8-2.6c-0.1-0.3-0.1-0.5,0.2-0.5C29.6,7,30,6.9,30.4,6.7
		c0.3-0.1,0.4-0.1,0.5,0.2c0.3,1,0.6,1.9,0.9,2.9c0.1,0.3,0.2,0.4,0.6,0.4c0.7,0,1.3,0,2,0c0.3,0,0.4-0.1,0.4-0.4c0-1.7,0-3.3,0-5
		c0-0.4,0.1-0.5,0.5-0.5c0.5,0.1,1.2-0.2,1.5,0.1c0.3,0.3,0.1,1,0.1,1.5c0,1.3,0,2.6,0,3.9c0,0.3,0.1,0.4,0.4,0.4c0.7,0,1.3,0,2,0
		c0.3,0,0.4-0.1,0.4-0.4C39.9,9,40.2,8,40.4,7c0.1-0.3,0.2-0.4,0.4-0.3c0.4,0.1,0.8,0.2,1.3,0.3c0.3,0.1,0.3,0.2,0.3,0.5
		C42.2,8.4,42,9.2,41.8,10c-0.1,0.2,0,0.3,0.2,0.3c0.7,0,1.5,0,2.2,0c0.2,0,0.4-0.1,0.5-0.3c0.7-1,1.3-2,2-3.1
		c0.2-0.4,0.5-0.5,1-0.5c0.6,0,1.1,0,1.7,0c0.1,0.2-0.1,0.3-0.2,0.4c-1.1,1.7-2.2,3.5-3.4,5.2c-0.2,0.3-0.3,0.3-0.6,0.3
		c-6.2,0-12.5,0-18.7,0c-0.3,0-0.5-0.1-0.7-0.4c-1.1-1.7-2.2-3.4-3.4-5.2c-0.1-0.1-0.2-0.2-0.2-0.4c0.7,0,1.4,0,2.2,0
		c0.2,0,0.3,0.1,0.4,0.3c0.7,1.1,1.4,2.1,2.1,3.2c0.1,0.2,0.3,0.4,0.6,0.3C28.3,10.3,29,10.3,29.8,10.3z"/>
	<path class="st2" d="M24.4,45.8c0.4,0.2,0.7,0.4,1,0.5c3.3,1.8,6.6,3.6,9.9,5.4c0.3,0.2,0.6,0.2,0.9,0c3.5-1.9,7.1-3.8,10.6-5.6
		c0.5-0.3,0.5-0.3,0.5,0.3c0,0.5,0,0.9,0,1.4c0,0.3-0.1,0.5-0.4,0.6c-3.6,1.9-7.2,3.8-10.8,5.8c-0.3,0.1-0.4,0.1-0.7,0
		c-3.5-1.9-7.1-3.8-10.7-5.7c-0.3-0.1-0.4-0.3-0.4-0.6C24.4,47.2,24.4,46.5,24.4,45.8z"/>
	<path class="st1" d="M38,38.2c1.8-0.9,2.9-2.2,3.3-4.1c0.1-0.5,0.1-1,0.1-1.5c0-0.3-0.1-0.5-0.4-0.5c-1.4,0-2.8,0-4.1,0
		c-0.3,0-0.4-0.1-0.4-0.4c0-2.3,0-4.5,0-6.8c0-0.3,0.1-0.4,0.4-0.4c1.9,0,3.8,0,5.8,0c0.3,0,0.4,0.1,0.4,0.4c0,1.3,0,2.5,0,3.8
		c0,0.3-0.1,0.4-0.4,0.4c-1.2,0-1.2,0-1.2-1.2c0-0.5,0-1,0-1.5c0-0.2,0-0.4-0.3-0.4c-0.9,0-1.9,0-2.8,0c-0.2,0-0.3,0-0.3,0.3
		c0,1.3,0,2.6,0,3.9c0,0.4,0.2,0.3,0.4,0.3c1.4,0,2.8,0,4.1,0c0.3,0,0.4,0.1,0.4,0.4c-0.1,1.4,0.1,2.8-0.3,4.2
		c-1,2.8-2.9,4.4-5.8,4.9c-0.2,0-0.4,0-0.4-0.3c0-1.9,0-3.9,0-5.8c0-0.3,0.1-0.3,0.3-0.3c1.2,0,1.2,0,1.2,1.1C38,36,38,37.1,38,38.2
		z"/>
	<path class="st1" d="M28.7,29.4c0-1.4,0-2.9,0-4.3c0-0.4,0.1-0.5,0.5-0.5c1.9,0,3.8,0,5.7,0c0.3,0,0.4,0.1,0.4,0.4
		c0,1.2,0,2.5,0,3.7c0,0.3-0.1,0.4-0.4,0.4c-1.1,0-1.1,0-1.1-1.1c0-0.5,0-1,0-1.5c0-0.3,0-0.4-0.4-0.4c-0.9,0-1.8,0-2.7,0
		c-0.2,0-0.4,0-0.4,0.3c0,2.3-0.1,4.6,0,6.9c0.1,2.1,1.2,3.7,3,4.7c0.3,0.2,0.4,0.1,0.4-0.3c0-1.2,0-2.4,0-3.6
		c0-0.3,0.1-0.5,0.4-0.5c1.1,0,1.1,0,1.1,1.1c0,1.6,0,3.2,0,4.9c0,0.4,0,0.5-0.5,0.4c-3.6-0.6-6-3.5-6-7.1
		C28.7,31.8,28.7,30.6,28.7,29.4C28.7,29.4,28.7,29.4,28.7,29.4z"/>
	<path class="st0" d="M65,65.2c0-0.6,0-1.2,0-1.8c0-0.2,0-0.4-0.1-0.5c-0.1-0.4-0.5-0.4-0.8-0.4c-0.4,0-0.4,0.3-0.4,0.6
		c0,0.9,0,1.8,0,2.7c0,0.3,0,0.5,0.4,0.4c0.2,0,0.3,0.1,0.3,0.3c0,1,0,1-1,1c-0.6,0-1.3,0-1.9,0c-0.3,0-0.4-0.1-0.3-0.3
		c0-0.2,0-0.4,0-0.6c0-0.3,0-0.5,0.4-0.5c0.2,0,0.3-0.1,0.3-0.3c0-1,0-2.1,0-3.1c0-0.3-0.2-0.3-0.4-0.3c-0.3,0-0.4-0.1-0.4-0.4
		c0-1,0-1,0.9-0.9c0.5,0,1.1-0.2,1.6,0.2c0.1,0,0.2-0.1,0.3-0.1c0.8-0.2,1.6-0.3,2.3,0.2c0.2,0.1,0.3,0,0.5,0c0.6-0.3,1.3-0.4,2-0.3
		c0.9,0.1,1.4,0.7,1.5,1.7c0,1,0,2,0,3c0,0.3,0,0.5,0.4,0.4c0.3-0.1,0.3,0.1,0.3,0.3c0,1,0,1-1,1c-0.5,0-1.2,0.2-1.5-0.1
		c-0.3-0.3-0.1-1-0.1-1.5c0-0.9,0.1-1.9-0.1-2.8c-0.1-0.6-0.5-0.8-1-0.6c-0.2,0.1-0.3,0.1-0.3,0.4c0,1,0,2,0,3
		c0,0.3,0.1,0.4,0.3,0.3c0.3,0,0.4,0.1,0.4,0.4c0,1,0,1-1,1c-0.5,0-1.2,0.2-1.5-0.1c-0.3-0.3-0.1-1-0.1-1.5C65,65.7,65,65.5,65,65.2
		C65,65.2,65,65.2,65,65.2z"/>
	<path class="st1" d="M35.8,16.6c-3.1,0-6.1,0-9.2,0c-0.4,0-0.5-0.1-0.5-0.5c0-0.4,0-0.8,0-1.3c0-0.3,0.1-0.4,0.4-0.4
		c1.1,0,2.3,0,3.4,0c5,0,10,0,15,0c0.4,0,0.6,0.1,0.5,0.5c0,0.4,0,0.7,0,1.1c0.1,0.4-0.1,0.5-0.5,0.5C41.9,16.6,38.9,16.6,35.8,16.6
		z"/>
	<path class="st0" d="M41.4,61.1c0-0.2,0-0.4,0-0.6c0-0.4,0-0.6-0.5-0.5c-0.2,0-0.3-0.1-0.3-0.3c-0.1-1.1-0.1-1.1,1-1.1
		c0.4,0,0.8,0,1.2,0c0.4,0,0.4,0.1,0.4,0.5c0,2.2,0,4.4,0,6.6c0,0.4,0,0.6,0.5,0.5c0.1,0,0.2,0,0.2,0.2c0,0.3,0,0.7,0,1
		c0,0.2-0.1,0.2-0.2,0.2c-0.6,0-1.2,0.1-1.8,0c-0.4-0.1-0.8,0-1.1,0.1c-1.4,0.3-2.4-0.3-2.7-1.8c-0.2-0.9-0.1-1.9,0-2.8
		c0.2-1.3,1-2,2.3-1.9C40.8,61,41.1,61,41.4,61.1z"/>
	<path class="st0" d="M50.8,66c0-1.1,0-1.1,1.2-1.1c0.5,0,0.7,0.1,0.6,0.6c-0.1,0.5,0.2,0.7,0.6,0.7c0.6,0,1.1-0.2,1.2-0.6
		c0.2-0.5,0-1-0.6-1.4c-0.6-0.3-1.1-0.7-1.7-1.1c-1.1-0.8-1.5-1.9-1.1-3.2c0.2-0.8,0.8-1.1,1.5-1.3c1.1-0.2,2.2-0.1,3.2,0.2
		c0.2,0.1,0.3,0.2,0.3,0.4c0,0.5,0,1.1,0,1.6c0,0.3-0.1,0.3-0.3,0.3c-0.2,0-0.4,0-0.6,0c-0.8,0-0.8,0-0.9-0.8c0-0.1,0-0.2-0.2-0.3
		c-0.4-0.1-1.1,0.1-1.2,0.4c-0.2,0.4-0.2,1,0.2,1.3c0.4,0.3,0.9,0.6,1.4,0.9c0.9,0.5,1.6,1.2,1.7,2.3c0.2,1.6-0.6,2.5-2.2,2.7
		c-1,0.1-2-0.1-2.9-0.3c-0.3-0.1-0.4-0.2-0.4-0.5C50.9,66.5,50.8,66.3,50.8,66z"/>
	<path class="st0" d="M17.9,65.2c0-0.6,0-1.3,0-2c-0.1-0.6-0.6-0.8-1.2-0.6c-0.2,0.1-0.2,0.2-0.2,0.3c0,1,0,2,0,3
		c0,0.3,0.1,0.4,0.4,0.3c0.3,0,0.4,0.1,0.4,0.4c0,1,0,1-0.9,1c-0.6,0-1.3,0-1.9,0c-0.3,0-0.4-0.1-0.4-0.4c0-0.2,0-0.3,0-0.5
		c0-0.3,0-0.5,0.4-0.4c0.3,0,0.3-0.1,0.3-0.3c0-1,0-2,0-3c0-0.3-0.1-0.4-0.4-0.4c-0.4,0.1-0.4-0.1-0.4-0.4c0-0.9,0-1,0.9-0.9
		c0.5,0,1-0.2,1.5,0.2c0,0,0.2,0,0.3-0.1c0.3-0.1,0.5-0.2,0.8-0.2c1.6-0.1,2.3,0.5,2.4,2.1c0,0.8,0,1.7,0,2.5c0,0.3,0,0.6,0.4,0.5
		c0.2,0,0.3,0,0.3,0.2c0.1,1.1,0.1,1.1-1,1.1c-0.5,0-1.2,0.2-1.5-0.1c-0.3-0.3-0.1-1-0.1-1.5C17.9,65.7,17.9,65.5,17.9,65.2z"/>
	<path class="st0" d="M1.2,63.1c0-0.5,0-1,0-1.6c0.1-1.8,1.1-2.9,3-3c0.8,0,1.6,0,2.4,0.2c0.2,0,0.3,0.1,0.3,0.4c0,0.6,0,1.3,0,1.9
		c0,0.2-0.1,0.3-0.3,0.3c-0.2,0-0.3,0-0.5,0c-0.9,0-0.9,0-0.9-0.9c0-0.1,0-0.2-0.2-0.3c-0.6-0.2-1.4,0.1-1.6,0.8
		c-0.1,0.3-0.2,0.7-0.2,1c0,0.9,0,1.7,0,2.6c0,1.2,0.5,1.7,1.7,1.6c0.6,0,1.1-0.1,1.7-0.2c0.3,0,0.4,0,0.4,0.3c0,0,0,0.1,0,0.1
		c0,1.2,0,1.2-1.2,1.3c-0.5,0-1.1,0.1-1.6,0c-1.8-0.1-2.9-1.1-3-3C1.2,64.1,1.2,63.6,1.2,63.1z"/>
	<path class="st0" d="M36.7,63.6c0,0.7,0,1.4,0,2.2c0,0.3,0.1,0.4,0.4,0.4c0.3-0.1,0.3,0.1,0.3,0.4c0,1,0,1-1,1
		c-0.5,0-1,0.2-1.4-0.2c0,0-0.2,0-0.3,0.1c-0.4,0.2-0.9,0.2-1.3,0.2c-1.2-0.1-1.8-0.6-1.8-1.8c0-1,0-2,0-2.9c0-0.3-0.1-0.5-0.4-0.4
		c-0.3,0.1-0.4-0.1-0.4-0.4c0-1,0-1,0.9-1c0.5,0,0.9,0,1.4,0c0.3,0,0.4,0.1,0.4,0.4c0,1.1,0,2.2,0,3.3c0,0.3,0,0.5,0,0.8
		c0.1,0.6,0.7,0.9,1.2,0.5c0.2-0.1,0.1-0.2,0.1-0.3c0-1,0-2,0-2.9c0-0.3-0.1-0.4-0.4-0.4c-0.3,0.1-0.5-0.1-0.4-0.4
		c0-0.9,0-0.9,0.9-0.9c0.5,0,0.9,0,1.4,0c0.3,0,0.3,0.1,0.3,0.3C36.7,62.2,36.7,62.9,36.7,63.6z"/>
	<path class="st0" d="M13.1,64.3c0,0.4,0,0.9-0.1,1.3c-0.1,1.1-0.7,1.7-1.7,1.9c-0.6,0.1-1.3,0.1-1.9,0c-1-0.2-1.6-0.8-1.7-1.8
		c-0.1-1-0.1-2,0-2.9c0.1-0.8,0.6-1.4,1.4-1.6c0.8-0.3,1.7-0.3,2.5,0c0.8,0.3,1.2,0.8,1.4,1.7C13.1,63.3,13.1,63.8,13.1,64.3z"/>
	<path class="st0" d="M50,64.4c0,0.5,0,0.9,0,1.4c-0.2,1.1-0.7,1.6-1.7,1.8c-0.7,0.1-1.4,0.1-2.1-0.1c-0.9-0.3-1.4-0.9-1.5-1.8
		c-0.1-0.9-0.1-1.9,0-2.8c0.1-0.9,0.6-1.5,1.5-1.8c0.6-0.2,1.3-0.2,2-0.1c1.2,0.2,1.8,0.9,1.9,2.2C50,63.6,50,64,50,64.4z"/>
	<path class="st0" d="M28.8,64.9c-0.4,0-0.9,0-1.3,0c-0.2,0-0.3,0.1-0.3,0.3c0,0.7,0.3,1,1,1.1c0.5,0,1.1,0,1.6-0.2
		c0.2-0.1,0.3,0,0.3,0.2c0,0,0,0,0,0.1c0,1.3,0.3,1-1,1.3c-0.6,0.1-1.1,0.1-1.7,0c-1.1-0.1-1.6-0.7-1.9-1.7c-0.2-1.1-0.2-2.1,0-3.2
		c0.2-1.1,0.9-1.6,2-1.7c2.2-0.1,3,0.6,3,2.8c0,1,0,1-1,1C29.2,64.9,29,64.9,28.8,64.9z"/>
	<path class="st0" d="M21.4,64.3c0-0.5,0-0.9,0-1.4c0-0.2,0-0.4-0.3-0.4c-0.4,0.1-0.5-0.1-0.4-0.5c0-0.1,0-0.2,0-0.4
		c-0.1-0.4,0.1-0.6,0.5-0.5c0.2,0,0.3-0.1,0.3-0.3c0-0.2,0.1-0.4,0.2-0.6c0.1-0.2,0-0.6,0.2-0.7c0.4-0.1,0.8,0,1.3,0
		c0.2,0,0.1,0.2,0.1,0.3c0,0.3,0,0.6,0,1c0,0.3,0.1,0.4,0.4,0.3c0.1,0,0.2,0,0.3,0c0.7,0,0.7,0,0.7,0.7c0,0.7,0,0.6-0.7,0.7
		c-0.8,0-0.7-0.1-0.7,0.7c0,0.7,0,1.4,0,2.1c0,0.8,0.2,0.9,0.9,0.9c0.4,0,0.5,0.1,0.5,0.5c0,1,0,1-1,1c-1.5,0.1-2.3-0.6-2.3-2.2
		C21.4,65.1,21.4,64.7,21.4,64.3z"/>
	<path class="st0" d="M59.8,63.7c0,0.7,0,1.4,0,2.2c0,0.2,0,0.4,0.3,0.3c0.4-0.1,0.4,0.1,0.4,0.5c0,0.9,0,0.9-0.9,0.9
		c-0.7,0-1.3,0-2,0c-0.4,0-0.4-0.1-0.4-0.4c0-0.2,0-0.4,0-0.6c0-0.3,0.1-0.4,0.4-0.4c0.3,0,0.3-0.1,0.3-0.3c0-1,0-2,0-3
		c0-0.3-0.1-0.4-0.3-0.3c-0.4,0.1-0.4-0.1-0.4-0.4c0-0.9,0-0.9,0.9-0.9c0.5,0,0.9,0,1.4,0c0.3,0,0.4,0.1,0.4,0.4
		C59.7,62.2,59.8,62.9,59.8,63.7z"/>
	<path class="st3" d="M58.8,60.4c-0.8,0-1-0.2-1-1c0-0.7,0.2-0.9,1-0.9c0.8,0,1,0.2,1,1C59.8,60.2,59.6,60.4,58.8,60.4z"/>
	<path class="st4" d="M35.8,58.4c-0.5,0.7-0.9,1.3-1.4,1.8c-0.3,0.3-0.8,0.1-1.3,0.1c0.3-0.6,0.6-1.2,0.8-1.7
		c0.1-0.2,0.2-0.2,0.4-0.2C34.7,58.4,35.2,58.4,35.8,58.4z"/>
	<path class="st5" d="M41.4,64.3c0,0.4,0,0.8,0,1.3c0,0.3,0.1,0.6-0.3,0.6c-0.4,0-0.9,0.1-1-0.4c-0.2-1-0.2-2,0-3
		c0.1-0.5,0.6-0.4,1-0.4c0.4,0,0.3,0.3,0.3,0.6C41.4,63.4,41.4,63.9,41.4,64.3z"/>
	<path class="st6" d="M11.2,64.4c0,0.3,0,0.7,0,1c0,0.5-0.3,0.7-0.8,0.7c-0.5,0-0.8-0.2-0.8-0.7c0-0.7,0-1.4,0-2.1
		c0-0.5,0.3-0.8,0.8-0.8c0.5,0,0.8,0.3,0.8,0.8c0,0,0,0.1,0,0.1C11.2,63.7,11.2,64.1,11.2,64.4C11.2,64.4,11.2,64.4,11.2,64.4z"/>
	<path class="st6" d="M48.1,64.4c0,0.4,0,0.7,0,1.1c0,0.5-0.3,0.7-0.8,0.7c-0.5,0-0.8-0.2-0.9-0.6c0-0.8,0-1.5,0-2.3
		c0-0.5,0.3-0.7,0.8-0.7c0.5,0,0.7,0.2,0.8,0.7C48.2,63.6,48.1,64,48.1,64.4C48.1,64.4,48.1,64.4,48.1,64.4z"/>
	<path class="st5" d="M27.9,63.7c-0.2-0.2-0.7,0.3-0.7-0.3c0-0.6,0.3-0.9,0.7-0.9c0.4,0,0.7,0.3,0.7,0.9
		C28.6,64,28.1,63.5,27.9,63.7z"/>
</g>
</svg>
